<svg height="512" viewBox="0 0 512 512" width="512" xmlns="http://www.w3.org/2000/svg"><g id="filled_outline" data-name="filled outline"><path d="m72 72h368a40 40 0 0 1 40 40v354a22 22 0 0 1 -22 22h-386a40 40 0 0 1 -40-40v-336a40 40 0 0 1 40-40z" fill="#8ed2ff"/><rect fill="#bce1ff" height="352" rx="12" width="384" x="64" y="104"/><path d="m400 384v-160l-65.207-28.312-11.95 6.89a48.561 48.561 0 0 0 -26.843 43.434 48.558 48.558 0 0 0 21.624 40.4l13.063 8.709a29.9 29.9 0 0 1 13.313 24.879v61z" fill="#8ed2ff"/><path d="m112 384v-160l64.56-28.9 12.6 7.475a48.561 48.561 0 0 1 26.84 43.437 48.558 48.558 0 0 1 -21.624 40.4l-13.063 8.709a29.9 29.9 0 0 0 -13.313 24.879v31z" fill="#8ed2ff"/><circle cx="256" cy="96" fill="#bce1ff" r="72"/><path d="m224 139.777a7.971 7.971 0 0 1 -5.332-2.038 56.831 56.831 0 0 1 -4.4-4.4 8 8 0 0 1 11.924-10.67 40.01 40.01 0 0 0 3.15 3.15 8 8 0 0 1 -5.342 13.958z" fill="#ddf3ff"/><path d="m256 152a56.6 56.6 0 0 1 -9.324-.774 8 8 0 1 1 2.648-15.78 40.511 40.511 0 0 0 6.676.554 40.062 40.062 0 0 0 29.816-13.335 8 8 0 1 1 11.922 10.67 56.081 56.081 0 0 1 -41.738 18.665z" fill="#ddf3ff"/><path d="m253.75 96.614a7.992 7.992 0 0 1 -6.664-3.563l-21.742-32.613a8 8 0 1 1 13.312-8.876l21.744 32.614a8 8 0 0 1 -6.648 12.438z" fill="#009cf7"/><path d="m248 32h16v24h-16z" fill="#8ed2ff"/><path d="m202.966 58h16.001v24h-16.001z" fill="#8ed2ff" transform="matrix(.5 -.866 .866 .5 44.863 217.704)"/><path d="m289.033 62h24v16.001h-24z" fill="#8ed2ff" transform="matrix(.866 -.5 .5 .866 5.328 159.885)"/><circle cx="360" cy="384" fill="#009cf7" r="40"/><circle cx="152" cy="224" fill="#009cf7" r="40"/><circle cx="152" cy="224" fill="#bce1ff" r="24"/><circle cx="152" cy="384" fill="#009cf7" r="40"/><circle cx="128" cy="160" fill="#8ed2ff" r="8"/><circle cx="152" cy="160" fill="#8ed2ff" r="8"/><circle cx="176" cy="160" fill="#8ed2ff" r="8"/><circle cx="200" cy="176" fill="#8ed2ff" r="8"/><circle cx="360" cy="224" fill="#009cf7" r="40"/><g fill="#8ed2ff"><circle cx="384" cy="160" r="8"/><circle cx="360" cy="160" r="8"/><circle cx="336" cy="160" r="8"/><circle cx="312" cy="176" r="8"/><path d="m256 176a80 80 0 1 1 80-80 80.091 80.091 0 0 1 -80 80zm0-144a64 64 0 1 0 64 64 64.072 64.072 0 0 0 -64-64z"/></g><circle cx="152" cy="384" fill="#bce1ff" r="24"/><circle cx="360" cy="224" fill="#bce1ff" r="24"/><circle cx="360" cy="384" fill="#bce1ff" r="24"/><circle cx="256" cy="96" fill="#009cf7" r="16"/><path d="m488 466v-354a48.053 48.053 0 0 0 -48-48h-110.7a79.968 79.968 0 0 0 -146.6 0h-110.7a48.053 48.053 0 0 0 -48 48v336a48.053 48.053 0 0 0 48 48h386a30.034 30.034 0 0 0 30-30zm-290.99-394.82 20.349 11.749 8-13.858-20.32-11.731a64.005 64.005 0 0 1 42.961-24.822v23.482h16v-23.482a64 64 0 0 1 42.96 24.822l-20.319 11.731 8 13.858 20.349-11.749a64 64 0 1 1 -117.98 0zm58.99 104.82a80.136 80.136 0 0 0 78.39-64h101.61a4 4 0 0 1 4 4v328a4 4 0 0 1 -4 4h-360a4 4 0 0 1 -4-4v-328a4 4 0 0 1 4-4h101.61a80.136 80.136 0 0 0 78.39 64zm216 290a14.015 14.015 0 0 1 -14 14h-386a32.036 32.036 0 0 1 -32-32v-336a32.036 32.036 0 0 1 32-32h105.61a80.049 80.049 0 0 0 -1.61 16h-100a20.023 20.023 0 0 0 -20 20v328a20.023 20.023 0 0 0 20 20h360a20.023 20.023 0 0 0 20-20v-328a20.023 20.023 0 0 0 -20-20h-100a80.049 80.049 0 0 0 -1.61-16h105.61a32.036 32.036 0 0 1 32 32z"/><path d="m218.665 137.739a8 8 0 0 0 10.67-11.924 40.01 40.01 0 0 1 -3.15-3.15 8 8 0 0 0 -11.924 10.67 56.831 56.831 0 0 0 4.404 4.404z"/><path d="m249.324 135.446a8 8 0 1 0 -2.648 15.78 56.085 56.085 0 0 0 51.062-17.891 8 8 0 1 0 -11.922-10.67 40.062 40.062 0 0 1 -29.816 13.335 40.511 40.511 0 0 1 -6.676-.554z"/><path d="m232 96a24 24 0 1 0 20.457-23.737l-13.8-20.7a8 8 0 1 0 -13.312 8.876l12.932 19.4a23.906 23.906 0 0 0 -6.277 16.161zm24-8a8 8 0 1 1 -8 8 8.009 8.009 0 0 1 8-8z"/><path d="m313.187 293.072 13.063 8.709a21.858 21.858 0 0 1 9.75 18.219v22.458a48.038 48.038 0 1 0 71.653 35.87 7.991 7.991 0 0 0 .347-2.328v-64a8 8 0 0 0 -16 0v36.261a47.813 47.813 0 0 0 -40-11.582v-16.679a37.822 37.822 0 0 0 -16.875-31.531l-13.063-8.709a40.594 40.594 0 0 1 -10-58.042c-.036.757-.058 1.517-.058 2.282a47.969 47.969 0 0 0 80 35.739v28.261a8 8 0 0 0 16 0v-64a47.973 47.973 0 0 0 -85.918-29.379 7.945 7.945 0 0 0 -2.817.8 56.559 56.559 0 0 0 -6.078 97.649zm46.813 58.928a32 32 0 1 1 -32 32 32.036 32.036 0 0 1 32-32zm0-160a32 32 0 1 1 -32 32 32.036 32.036 0 0 1 32-32z"/><path d="m104 224v64a8 8 0 0 0 16 0v-28.261a47.969 47.969 0 0 0 80-35.739c0-.765-.022-1.525-.058-2.282a40.594 40.594 0 0 1 -10 58.042l-13.063 8.709a37.822 37.822 0 0 0 -16.879 31.531v16.679a47.813 47.813 0 0 0 -40 11.582v-36.261a8 8 0 0 0 -16 0v64a7.991 7.991 0 0 0 .347 2.328 48 48 0 1 0 71.653-35.87v-22.458a21.858 21.858 0 0 1 9.75-18.219l13.063-8.709a56.559 56.559 0 0 0 -6.078-97.649 7.967 7.967 0 0 0 -2.816-.8 47.973 47.973 0 0 0 -85.919 29.377zm80 160a32 32 0 1 1 -32-32 32.036 32.036 0 0 1 32 32zm0-160a32 32 0 1 1 -32-32 32.036 32.036 0 0 1 32 32z"/><circle cx="128" cy="160" r="8"/><circle cx="152" cy="160" r="8"/><circle cx="176" cy="160" r="8"/><circle cx="200" cy="176" r="8"/><circle cx="384" cy="160" r="8"/><circle cx="360" cy="160" r="8"/><circle cx="336" cy="160" r="8"/><circle cx="312" cy="176" r="8"/></g></svg>